# xmcd
#
# Track frame offsets: 
#        150
#        8775
#        23400
#        39675
#        56550
#        73500
#        91575
#        105900
#        123975
#        139950
#        153375
#
# Disc length: 2255 seconds
#
# Revision: 0
# Processed by: cddbd v1.5.2PL0 Copyright (c) Steve Scherf et al.
# Submitted via: ExactAudioCopy v0.99pb5
#
DISCID=7f08cd0b
DTITLE=Freepoint Crew - Three Amigos
DYEAR=2010
DGENRE=Hip-Hop
TTITLE0=Three Amigos
TTITLE1=Still Alive
TTITLE2=Old News
TTITLE3=FIN
TTITLE4=Good Year
TTITLE5=Small Town Kids
TTITLE6=Continuous Motion
TTITLE7=12 Days in Seoul (feat. The Quiett)
TTITLE8=Money Making Machine
TTITLE9=Time to Cook
TTITLE10=Change for the Better
EXTD=
EXTT0=
EXTT1=
EXTT2=
EXTT3=
EXTT4=
EXTT5=
EXTT6=
EXTT7=
EXTT8=
EXTT9=
EXTT10=
PLAYORDER=
